# Blender v2.82 (sub 7) OBJ File: 'campfire_complete_woods.blend'
# www.blender.org
mtllib campfire_complete_woods.mtl
o campfire_complete_woods_Cylinder.014
v 0.389131 0.256246 -0.603005
v -0.358636 0.256246 -0.603004
v 0.389131 0.182330 -0.603005
v -0.358636 0.182330 -0.603004
v 0.389131 0.145371 -0.667018
v -0.358636 0.145371 -0.667018
v 0.389131 0.274725 -0.635012
v -0.358636 0.274725 -0.635011
v 0.389131 0.163850 -0.699025
v -0.358636 0.163850 -0.699025
v 0.389132 0.256246 0.652402
v -0.358636 0.256246 0.652402
v 0.389132 0.182330 0.652402
v -0.358636 0.182330 0.652402
v 0.389132 0.145371 0.588388
v -0.358636 0.145371 0.588388
v 0.389132 0.274725 0.620395
v -0.358636 0.274725 0.620395
v 0.389132 0.163850 0.556381
v -0.358636 0.163850 0.556381
v 0.495804 0.266791 -0.425153
v -0.465308 0.266791 -0.425152
v 0.495804 0.171785 -0.425153
v -0.465308 0.171785 -0.425152
v 0.495804 0.124282 -0.507430
v -0.465308 0.124282 -0.507430
v 0.495804 0.290542 -0.466291
v -0.465308 0.290542 -0.466291
v 0.495804 0.148034 -0.548569
v -0.465308 0.148034 -0.548569
v 0.495804 0.266791 0.500420
v -0.465308 0.266791 0.500420
v 0.495804 0.171785 0.500420
v -0.465308 0.171785 0.500420
v 0.495804 0.124282 0.418142
v -0.465308 0.124282 0.418143
v 0.495804 0.290542 0.459281
v -0.465308 0.290542 0.459281
v 0.495804 0.148034 0.377004
v -0.465308 0.148034 0.377004
v 0.450828 0.266791 0.306428
v -0.510284 0.266791 0.306428
v 0.450828 0.171785 0.306428
v -0.510284 0.171785 0.306428
v 0.450828 0.124282 0.224150
v -0.510284 0.124282 0.224151
v 0.450828 0.290542 0.265289
v -0.510284 0.290542 0.265289
v 0.450828 0.148034 0.183012
v -0.510284 0.148034 0.183012
v 0.450828 0.266791 -0.239086
v -0.510284 0.266791 -0.239086
v 0.450828 0.171785 -0.239086
v -0.510284 0.171785 -0.239086
v 0.450828 0.124282 -0.321364
v -0.510284 0.124282 -0.321363
v 0.450828 0.290542 -0.280225
v -0.510284 0.290542 -0.280225
v 0.450828 0.148034 -0.362503
v -0.510284 0.148034 -0.362502
v 0.467695 0.266791 -0.061966
v -0.527152 0.266791 -0.061966
v 0.467695 0.171785 -0.061966
v -0.527152 0.171785 -0.061966
v 0.467695 0.124282 -0.144243
v -0.527152 0.124282 -0.144243
v 0.467695 0.290542 -0.103105
v -0.527152 0.290542 -0.103104
v 0.467695 0.148034 -0.185382
v -0.527152 0.148034 -0.185382
v 0.467695 0.266791 0.124974
v -0.527152 0.266791 0.124975
v 0.467695 0.171785 0.124974
v -0.527152 0.171785 0.124975
v 0.467695 0.124282 0.042697
v -0.527152 0.124282 0.042697
v 0.467695 0.290542 0.083836
v -0.527152 0.290542 0.083836
v 0.467695 0.148034 0.001558
v -0.527152 0.148034 0.001559
vt 0.916667 0.500000
vt 0.916667 1.000000
vt 0.833333 1.000000
vt 0.833333 0.500000
vt 0.666667 1.000000
vt 0.666667 0.500000
vt 0.500000 1.000000
vt 0.500000 0.500000
vt 0.416667 1.000000
vt 0.416667 0.500000
vt 0.916667 0.500000
vt 0.916667 1.000000
vt 0.833333 1.000000
vt 0.833333 0.500000
vt 0.666667 1.000000
vt 0.666667 0.500000
vt 0.500000 1.000000
vt 0.500000 0.500000
vt 0.416667 1.000000
vt 0.416667 0.500000
vt 0.916667 0.500000
vt 0.916667 1.000000
vt 0.833333 1.000000
vt 0.833333 0.500000
vt 0.666667 1.000000
vt 0.666667 0.500000
vt 0.500000 1.000000
vt 0.500000 0.500000
vt 0.416667 1.000000
vt 0.416667 0.500000
vt 0.916667 0.500000
vt 0.916667 1.000000
vt 0.833333 1.000000
vt 0.833333 0.500000
vt 0.666667 1.000000
vt 0.666667 0.500000
vt 0.500000 1.000000
vt 0.500000 0.500000
vt 0.416667 1.000000
vt 0.416667 0.500000
vt 0.916667 0.500000
vt 0.916667 1.000000
vt 0.833333 1.000000
vt 0.833333 0.500000
vt 0.666667 1.000000
vt 0.666667 0.500000
vt 0.500000 1.000000
vt 0.500000 0.500000
vt 0.416667 1.000000
vt 0.416667 0.500000
vt 0.916667 0.500000
vt 0.916667 1.000000
vt 0.833333 1.000000
vt 0.833333 0.500000
vt 0.666667 1.000000
vt 0.666667 0.500000
vt 0.500000 1.000000
vt 0.500000 0.500000
vt 0.416667 1.000000
vt 0.416667 0.500000
vt 0.916667 0.500000
vt 0.916667 1.000000
vt 0.833333 1.000000
vt 0.833333 0.500000
vt 0.666667 1.000000
vt 0.666667 0.500000
vt 0.500000 1.000000
vt 0.500000 0.500000
vt 0.416667 1.000000
vt 0.416667 0.500000
vt 0.916667 0.500000
vt 0.916667 1.000000
vt 0.833333 1.000000
vt 0.833333 0.500000
vt 0.666667 1.000000
vt 0.666667 0.500000
vt 0.500000 1.000000
vt 0.500000 0.500000
vt 0.416667 1.000000
vt 0.416667 0.500000
vn 0.0000 0.8660 0.5000
vn 0.0000 0.0000 1.0000
vn 0.0000 -0.8660 0.5000
vn -0.0000 -0.8660 -0.5000
vn -1.0000 0.0000 0.0000
vn 1.0000 0.0000 -0.0000
vn -0.0000 0.5000 -0.8660
usemtl trunk_brown.008
s off
f 7/1/1 8/2/1 2/3/1 1/4/1
f 1/4/2 2/3/2 4/5/2 3/6/2
f 3/6/3 4/5/3 6/7/3 5/8/3
f 5/8/4 6/7/4 10/9/4 9/10/4
f 2/3/5 8/2/5 10/9/5 6/7/5 4/5/5
f 7/1/6 1/4/6 3/6/6 5/8/6 9/10/6
f 17/11/1 18/12/1 12/13/1 11/14/1
f 11/14/2 12/13/2 14/15/2 13/16/2
f 13/16/3 14/15/3 16/17/3 15/18/3
f 15/18/4 16/17/4 20/19/4 19/20/4
f 12/13/5 18/12/5 20/19/5 16/17/5 14/15/5
f 17/11/6 11/14/6 13/16/6 15/18/6 19/20/6
f 27/21/1 28/22/1 22/23/1 21/24/1
f 21/24/2 22/23/2 24/25/2 23/26/2
f 23/26/3 24/25/3 26/27/3 25/28/3
f 25/28/4 26/27/4 30/29/4 29/30/4
f 22/23/5 28/22/5 30/29/5 26/27/5 24/25/5
f 27/21/6 21/24/6 23/26/6 25/28/6 29/30/6
f 37/31/1 38/32/1 32/33/1 31/34/1
f 31/34/2 32/33/2 34/35/2 33/36/2
f 33/36/3 34/35/3 36/37/3 35/38/3
f 35/38/4 36/37/4 40/39/4 39/40/4
f 32/33/5 38/32/5 40/39/5 36/37/5 34/35/5
f 37/31/6 31/34/6 33/36/6 35/38/6 39/40/6
f 47/41/1 48/42/1 42/43/1 41/44/1
f 41/44/2 42/43/2 44/45/2 43/46/2
f 43/46/3 44/45/3 46/47/3 45/48/3
f 45/48/4 46/47/4 50/49/4 49/50/4
f 42/43/5 48/42/5 50/49/5 46/47/5 44/45/5
f 47/41/6 41/44/6 43/46/6 45/48/6 49/50/6
f 57/51/1 58/52/1 52/53/1 51/54/1
f 51/54/2 52/53/2 54/55/2 53/56/2
f 53/56/3 54/55/3 56/57/3 55/58/3
f 55/58/4 56/57/4 60/59/4 59/60/4
f 52/53/5 58/52/5 60/59/5 56/57/5 54/55/5
f 57/51/6 51/54/6 53/56/6 55/58/6 59/60/6
f 67/61/1 68/62/1 62/63/1 61/64/1
f 61/64/2 62/63/2 64/65/2 63/66/2
f 63/66/3 64/65/3 66/67/3 65/68/3
f 65/68/4 66/67/4 70/69/4 69/70/4
f 62/63/5 68/62/5 70/69/5 66/67/5 64/65/5
f 67/61/6 61/64/6 63/66/6 65/68/6 69/70/6
f 77/71/1 78/72/1 72/73/1 71/74/1
f 71/74/2 72/73/2 74/75/2 73/76/2
f 73/76/3 74/75/3 76/77/3 75/78/3
f 75/78/4 76/77/4 80/79/4 79/80/4
f 72/73/5 78/72/5 80/79/5 76/77/5 74/75/5
f 77/71/6 71/74/6 73/76/6 75/78/6 79/80/6
usemtl trunk_interior.004
f 7/1/7 9/10/7 10/9/7 8/2/7
f 17/11/7 19/20/7 20/19/7 18/12/7
f 27/21/7 29/30/7 30/29/7 28/22/7
f 37/31/7 39/40/7 40/39/7 38/32/7
f 47/41/7 49/50/7 50/49/7 48/42/7
f 57/51/7 59/60/7 60/59/7 58/52/7
f 67/61/7 69/70/7 70/69/7 68/62/7
f 77/71/7 79/80/7 80/79/7 78/72/7
