# Blender v2.82 (sub 7) OBJ File: 'campfire_wood.blend'
# www.blender.org
mtllib campfire_wood.mtl
o campfire_wood_Cylinder.011
v -0.110159 0.155985 0.643403
v -0.110159 0.155985 -0.643403
v -0.110159 0.028784 0.643403
v -0.110159 0.028784 -0.643403
v 0.000000 -0.034816 0.643403
v -0.000000 -0.034816 -0.643403
v -0.055079 0.187785 0.643403
v -0.055080 0.187785 -0.643403
v 0.055080 -0.003016 0.643403
v 0.055079 -0.003016 -0.643403
vt 0.916667 0.500000
vt 0.916667 1.000000
vt 0.833333 1.000000
vt 0.833333 0.500000
vt 0.666667 1.000000
vt 0.666667 0.500000
vt 0.500000 1.000000
vt 0.500000 0.500000
vt 0.416667 1.000000
vt 0.416667 0.500000
vn -0.5000 0.8660 0.0000
vn -1.0000 -0.0000 0.0000
vn -0.5000 -0.8660 0.0000
vn 0.5000 -0.8660 -0.0000
vn -0.0000 -0.0000 -1.0000
vn 0.0000 0.0000 1.0000
vn 0.8660 0.5000 -0.0000
usemtl trunk_brown.007
s off
f 7/1/1 8/2/1 2/3/1 1/4/1
f 1/4/2 2/3/2 4/5/2 3/6/2
f 3/6/3 4/5/3 6/7/3 5/8/3
f 5/8/4 6/7/4 10/9/4 9/10/4
f 2/3/5 8/2/5 10/9/5 6/7/5 4/5/5
f 7/1/6 1/4/6 3/6/6 5/8/6 9/10/6
usemtl trunk_interior.003
f 7/1/7 9/10/7 10/9/7 8/2/7
