# Blender v2.82 (sub 7) OBJ File: 'rock_b_with_moss.blend'
# www.blender.org
mtllib rock_b_with_moss.mtl
o rock_b_with_moss_Icosphere.005
v 0.383489 0.447220 0.878640
v -0.723607 0.447220 0.525725
v -0.810236 0.386761 -0.552553
v 0.276388 0.447220 -0.850649
v 0.935338 0.447216 -0.017449
v 0.116176 1.099208 0.170060
v 1.007958 0.000000 0.378807
v 0.951058 0.000000 -0.309013
v -0.020275 0.000000 1.096820
v 0.587786 0.000000 0.809017
v -0.965340 0.000000 0.440873
v -0.587786 0.000000 0.809017
v -0.587786 0.000000 -0.809017
v -0.965340 0.000000 -0.440873
v 0.587786 0.000000 -0.809017
v 0.000000 0.000000 -1.000000
v 0.746548 0.471558 0.666620
v -0.404289 0.525738 0.817813
v -0.822084 0.525736 0.000000
v -0.241815 0.483630 -0.902048
v 0.670874 0.525736 -0.658609
v 0.141377 0.904833 0.323475
v 0.462548 0.850652 -0.017449
v -0.425323 0.850654 0.309011
v -0.527778 0.873092 -0.297795
v 0.214311 0.831575 -0.561407
vt 0.818181 0.314921
vt 0.727272 0.314921
vt 0.772726 0.393651
vt 1.000000 0.314921
vt 0.909091 0.314921
vt 0.954545 0.393651
vt 0.272727 0.314921
vt 0.181818 0.314921
vt 0.227273 0.393651
vt 0.090909 0.314921
vt 0.136363 0.393651
vt 0.636363 0.314921
vt 0.681818 0.393651
vt 0.590909 0.236191
vt 0.545454 0.314921
vt 0.500000 0.236191
vt 0.454545 0.314921
vt 0.409090 0.236191
vt 0.363636 0.314921
vt 0.318182 0.236191
vt 0.227273 0.236191
vt 0.136363 0.236191
vt 0.954545 0.236191
vt 0.863635 0.236191
vt 0.772726 0.236191
vt 0.681818 0.236191
vt 0.045454 0.236191
vt 0.409090 0.393651
vt 0.590909 0.393651
vt 0.500000 0.393651
vt 0.545454 0.472382
vt 0.318182 0.393651
vt 0.363636 0.472382
vt 0.181818 0.472382
vt 0.863635 0.393651
vt 0.909090 0.472382
vt 0.727272 0.472382
vn 0.2634 0.7976 0.5426
vn -0.5818 0.6744 0.4547
vn -0.8159 0.5563 -0.1574
vn -0.7182 0.6559 0.2325
vn 0.6417 0.7520 0.1503
vn 0.9046 0.2547 -0.3419
vn 0.8084 0.0403 -0.5873
vn 0.3980 0.1936 -0.8967
vn 0.1130 0.2512 -0.9613
vn -0.3088 0.0381 -0.9504
vn -0.5379 0.2287 -0.8114
vn -0.9331 0.3435 -0.1064
vn -0.9648 0.2629 0.0000
vn -0.8740 0.4292 0.2278
vn -0.6871 0.2283 0.6898
vn -0.4477 0.1415 0.8829
vn -0.0233 0.4553 0.8900
vn 0.4974 0.0930 0.8625
vn 0.7151 -0.0299 0.6984
vn 0.9038 0.3565 0.2367
vn 0.3066 0.1256 -0.9435
vn -0.6963 0.0730 -0.7141
vn -0.6786 0.2348 0.6960
vn 0.4272 0.0546 0.9025
vn 0.9927 0.0884 -0.0821
vn 0.0000 -1.0000 0.0000
vn 0.1205 0.6093 -0.7837
vn 0.6394 0.7494 -0.1720
vn 0.4737 0.8456 -0.2459
vn 0.4995 0.8273 -0.2570
vn 0.2465 0.6078 -0.7548
vn -0.0726 0.9335 -0.3513
vn -0.1647 0.7917 -0.5882
vn -0.4878 0.6103 -0.6242
vn -0.3937 0.9138 0.1003
vn -0.6913 0.7083 0.1429
vn -0.0785 0.6113 0.7875
vn -0.0938 0.8373 0.5386
vn 0.0290 0.7775 0.6282
vn 0.6634 0.5147 0.5431
vn 0.4458 0.8485 0.2851
usemtl rock.003
s off
f 1/1/1 17/2/1 22/3/1
f 2/4/2 18/5/2 24/6/2
f 3/7/3 19/8/3 25/9/3
f 19/8/4 2/10/4 24/11/4
f 17/2/5 5/12/5 23/13/5
f 8/14/6 21/15/6 5/12/6
f 8/14/7 15/16/7 21/15/7
f 15/16/8 4/17/8 21/15/8
f 16/18/9 20/19/9 4/17/9
f 16/18/10 13/20/10 20/19/10
f 13/20/11 3/7/11 20/19/11
f 14/21/12 19/8/12 3/7/12
f 14/21/13 11/22/13 19/8/13
f 11/22/14 2/10/14 19/8/14
f 12/23/15 18/5/15 2/4/15
f 12/23/16 9/24/16 18/5/16
f 9/24/17 1/1/17 18/5/17
f 10/25/18 17/2/18 1/1/18
f 10/25/19 7/26/19 17/2/19
f 7/26/20 5/12/20 17/2/20
f 15/16/21 16/18/21 4/17/21
f 13/20/22 14/21/22 3/7/22
f 11/22/23 12/27/23 2/10/23
f 9/24/24 10/25/24 1/1/24
f 7/26/25 8/14/25 5/12/25
f 8/14/26 7/26/26 10/25/26 9/24/26 12/23/26 11/22/26 14/21/26 13/20/26 16/18/26 15/16/26
usemtl moss.001
f 4/17/27 20/19/27 26/28/27
f 5/12/28 21/15/28 23/29/28
f 23/29/29 26/30/29 6/31/29
f 23/29/30 21/15/30 26/30/30
f 21/15/31 4/17/31 26/30/31
f 26/28/32 25/32/32 6/33/32
f 26/28/33 20/19/33 25/32/33
f 20/19/34 3/7/34 25/32/34
f 25/9/35 24/11/35 6/34/35
f 25/9/36 19/8/36 24/11/36
f 24/6/37 22/35/37 6/36/37
f 24/6/38 18/5/38 22/35/38
f 18/5/39 1/1/39 22/35/39
f 22/3/40 23/13/40 6/37/40
f 22/3/41 17/2/41 23/13/41
