# Blender v2.82 (sub 7) OBJ File: 'tree_b_orange.blend'
# www.blender.org
mtllib tree_b_orange.mtl
o treetop_b_orange_Cylinder.006
v 0.000000 1.937928 -3.230283
v -0.000000 3.937928 -1.563142
v 2.797507 1.937928 -1.615141
v 1.353720 3.937928 -0.781571
v 2.797507 1.937928 1.615141
v 1.353720 3.937928 0.781571
v -0.000000 1.937928 3.230283
v -0.000000 3.937928 1.563142
v -2.797507 1.937928 1.615141
v -1.353720 3.937928 0.781571
v -2.797507 1.937928 -1.615141
v -1.353720 3.937928 -0.781571
v 0.000000 3.572616 -2.685102
v -0.000000 5.572616 -1.200797
v 2.325366 3.572616 -1.342551
v 1.039921 5.572616 -0.600398
v 2.325366 3.572616 1.342551
v 1.039921 5.572616 0.600399
v -0.000000 3.572616 2.685102
v -0.000000 5.572616 1.200797
v -2.325366 3.572616 1.342551
v -1.039921 5.572616 0.600399
v -2.325366 3.572616 -1.342551
v -1.039921 5.572616 -0.600398
v 0.000000 5.150923 -2.438257
v -0.000000 7.150923 -0.986791
v 2.111593 5.150923 -1.219128
v 0.854586 7.150923 -0.493395
v 2.111593 5.150923 1.219129
v 0.854586 7.150923 0.493396
v -0.000000 5.150923 2.438257
v -0.000000 7.150923 0.986791
v -2.111593 5.150923 1.219128
v -0.854586 7.150923 0.493395
v -2.111593 5.150923 -1.219128
v -0.854586 7.150923 -0.493395
v 0.000000 7.123518 -1.000000
v 0.866025 7.123518 -0.500000
v 0.866025 7.123518 0.500000
v -0.000000 7.123518 1.000000
v 0.000000 9.123518 0.000000
v -0.866025 7.123518 0.500000
v -0.866025 7.123518 -0.500000
vt 1.000000 0.500000
vt 1.000000 1.000000
vt 0.833333 1.000000
vt 0.833333 0.500000
vt 0.666667 1.000000
vt 0.666667 0.500000
vt 0.500000 1.000000
vt 0.500000 0.500000
vt 0.333333 1.000000
vt 0.333333 0.500000
vt 0.457846 0.370000
vt 0.250000 0.490000
vt 0.042154 0.370000
vt 0.042154 0.130000
vt 0.250000 0.010000
vt 0.457846 0.130000
vt 0.166667 1.000000
vt 0.166667 0.500000
vt -0.000000 1.000000
vt -0.000000 0.500000
vt 0.750000 0.490000
vt 0.957846 0.370000
vt 0.957846 0.130000
vt 0.750000 0.010000
vt 0.542154 0.130000
vt 0.542154 0.370000
vt 1.000000 0.500000
vt 1.000000 1.000000
vt 0.833333 1.000000
vt 0.833333 0.500000
vt 0.666667 1.000000
vt 0.666667 0.500000
vt 0.500000 1.000000
vt 0.500000 0.500000
vt 0.333333 1.000000
vt 0.333333 0.500000
vt 0.457846 0.370000
vt 0.250000 0.490000
vt 0.042154 0.370000
vt 0.042154 0.130000
vt 0.250000 0.010000
vt 0.457846 0.130000
vt 0.166667 1.000000
vt 0.166667 0.500000
vt -0.000000 1.000000
vt -0.000000 0.500000
vt 0.750000 0.490000
vt 0.957846 0.370000
vt 0.957846 0.130000
vt 0.750000 0.010000
vt 0.542154 0.130000
vt 0.542154 0.370000
vt 1.000000 0.500000
vt 1.000000 1.000000
vt 0.833333 1.000000
vt 0.833333 0.500000
vt 0.666667 1.000000
vt 0.666667 0.500000
vt 0.500000 1.000000
vt 0.500000 0.500000
vt 0.333333 1.000000
vt 0.333333 0.500000
vt 0.457846 0.370000
vt 0.250000 0.490000
vt 0.042154 0.370000
vt 0.042154 0.130000
vt 0.250000 0.010000
vt 0.457846 0.130000
vt 0.166667 1.000000
vt 0.166667 0.500000
vt -0.000000 1.000000
vt -0.000000 0.500000
vt 0.750000 0.490000
vt 0.957846 0.370000
vt 0.957846 0.130000
vt 0.750000 0.010000
vt 0.542154 0.130000
vt 0.542154 0.370000
vt 0.250000 0.490000
vt 0.250000 0.250000
vt 0.457846 0.370000
vt 0.457846 0.130000
vt 0.250000 0.010000
vt 0.042154 0.130000
vt 0.042154 0.370000
vt 0.750000 0.490000
vt 0.957846 0.370000
vt 0.957846 0.130000
vt 0.750000 0.010000
vt 0.542154 0.130000
vt 0.542154 0.370000
vn 0.4054 0.5853 -0.7022
vn 0.8108 0.5853 0.0000
vn 0.4054 0.5853 0.7022
vn -0.4054 0.5853 0.7022
vn 0.0000 1.0000 0.0000
vn -0.8108 0.5853 0.0000
vn -0.4054 0.5853 -0.7022
vn 0.0000 -1.0000 0.0000
vn 0.4206 0.5407 -0.7285
vn 0.8412 0.5407 0.0000
vn 0.4206 0.5407 0.7285
vn -0.4206 0.5407 0.7285
vn -0.8412 0.5407 0.0000
vn -0.4206 0.5407 -0.7285
vn 0.4233 0.5321 -0.7332
vn 0.8467 0.5321 0.0000
vn 0.4233 0.5321 0.7332
vn -0.4233 0.5321 0.7332
vn -0.8467 0.5321 0.0000
vn -0.4233 0.5321 -0.7332
vn 0.4588 0.3974 -0.7947
vn 0.9177 0.3974 0.0000
vn 0.4588 0.3974 0.7947
vn -0.4588 0.3974 0.7947
vn -0.9177 0.3974 0.0000
vn -0.4588 0.3974 -0.7947
usemtl treetop_orange.001
s off
f 1/1/1 2/2/1 4/3/1 3/4/1
f 3/4/2 4/3/2 6/5/2 5/6/2
f 5/6/3 6/5/3 8/7/3 7/8/3
f 7/8/4 8/7/4 10/9/4 9/10/4
f 4/11/5 2/12/5 12/13/5 10/14/5 8/15/5 6/16/5
f 9/10/6 10/9/6 12/17/6 11/18/6
f 11/18/7 12/17/7 2/19/7 1/20/7
f 1/21/8 3/22/8 5/23/8 7/24/8 9/25/8 11/26/8
f 13/27/9 14/28/9 16/29/9 15/30/9
f 15/30/10 16/29/10 18/31/10 17/32/10
f 17/32/11 18/31/11 20/33/11 19/34/11
f 19/34/12 20/33/12 22/35/12 21/36/12
f 16/37/5 14/38/5 24/39/5 22/40/5 20/41/5 18/42/5
f 21/36/13 22/35/13 24/43/13 23/44/13
f 23/44/14 24/43/14 14/45/14 13/46/14
f 13/47/8 15/48/8 17/49/8 19/50/8 21/51/8 23/52/8
f 25/53/15 26/54/15 28/55/15 27/56/15
f 27/56/16 28/55/16 30/57/16 29/58/16
f 29/58/17 30/57/17 32/59/17 31/60/17
f 31/60/18 32/59/18 34/61/18 33/62/18
f 28/63/5 26/64/5 36/65/5 34/66/5 32/67/5 30/68/5
f 33/62/19 34/61/19 36/69/19 35/70/19
f 35/70/20 36/69/20 26/71/20 25/72/20
f 25/73/8 27/74/8 29/75/8 31/76/8 33/77/8 35/78/8
f 37/79/21 41/80/21 38/81/21
f 38/81/22 41/80/22 39/82/22
f 39/82/23 41/80/23 40/83/23
f 40/83/24 41/80/24 42/84/24
f 42/84/25 41/80/25 43/85/25
f 43/85/26 41/80/26 37/79/26
f 37/86/8 38/87/8 39/88/8 40/89/8 42/90/8 43/91/8
o trunk_b_orange_Cylinder.007
v 0.000000 -0.036969 -1.000000
v 0.000000 2.068605 -1.000000
v 0.866025 -0.036969 -0.500000
v 0.866025 2.068605 -0.500000
v 0.866025 -0.036969 0.500000
v 0.866025 2.068605 0.500000
v -0.000000 -0.036969 1.000000
v -0.000000 2.068605 1.000000
v -0.866025 -0.036969 0.500000
v -0.866025 2.068605 0.500000
v -0.866025 -0.036969 -0.500000
v -0.866025 2.068605 -0.500000
v 0.000000 1.015818 -1.059336
v 0.917412 1.015818 -0.529668
v 0.917412 1.015818 0.529668
v -0.000000 1.015818 1.059336
v -0.917412 1.015818 0.529668
v -0.917412 1.015818 -0.529668
vt 1.000000 0.750000
vt 1.000000 1.000000
vt 0.833333 1.000000
vt 0.833333 0.750000
vt 0.666667 1.000000
vt 0.666667 0.750000
vt 0.500000 1.000000
vt 0.500000 0.750000
vt 0.333333 1.000000
vt 0.333333 0.750000
vt 0.457846 0.370000
vt 0.250000 0.490000
vt 0.042154 0.370000
vt 0.042154 0.130000
vt 0.250000 0.010000
vt 0.457846 0.130000
vt 0.166667 1.000000
vt 0.166667 0.750000
vt -0.000000 1.000000
vt -0.000000 0.750000
vt 0.750000 0.490000
vt 0.957846 0.370000
vt 0.957846 0.130000
vt 0.750000 0.010000
vt 0.542154 0.130000
vt 0.542154 0.370000
vt 0.166667 0.500000
vt -0.000000 0.500000
vt 0.333333 0.500000
vt 0.500000 0.500000
vt 0.666667 0.500000
vt 0.833333 0.500000
vt 1.000000 0.500000
vn 0.4994 0.0488 -0.8650
vn 0.9988 0.0488 0.0000
vn 0.4994 0.0488 0.8650
vn -0.4994 0.0488 0.8650
vn 0.0000 1.0000 -0.0000
vn -0.9988 0.0488 0.0000
vn -0.4994 0.0488 -0.8650
vn 0.0000 -1.0000 0.0000
vn -0.4994 -0.0488 -0.8650
vn -0.9988 -0.0488 0.0000
vn -0.4994 -0.0488 0.8650
vn 0.4994 -0.0488 0.8650
vn 0.9988 -0.0488 0.0000
vn 0.4994 -0.0488 -0.8650
usemtl trunk_brown.003
s off
f 56/92/27 45/93/27 47/94/27 57/95/27
f 57/95/28 47/94/28 49/96/28 58/97/28
f 58/97/29 49/96/29 51/98/29 59/99/29
f 59/99/30 51/98/30 53/100/30 60/101/30
f 47/102/31 45/103/31 55/104/31 53/105/31 51/106/31 49/107/31
f 60/101/32 53/100/32 55/108/32 61/109/32
f 61/109/33 55/108/33 45/110/33 56/111/33
f 44/112/34 46/113/34 48/114/34 50/115/34 52/116/34 54/117/34
f 54/118/35 61/109/35 56/111/35 44/119/35
f 52/120/36 60/101/36 61/109/36 54/118/36
f 50/121/37 59/99/37 60/101/37 52/120/37
f 48/122/38 58/97/38 59/99/38 50/121/38
f 46/123/39 57/95/39 58/97/39 48/122/39
f 44/124/40 56/92/40 57/95/40 46/123/40
