# Blender v2.82 (sub 7) OBJ File: 'trunk_chopped_half.blend'
# www.blender.org
mtllib trunk_chopped_half.mtl
o trunk_chopped_half_Cylinder.009
v -0.866079 1.500000 0.999954
v -0.865972 1.500000 -1.000046
v -0.866079 0.500000 0.999954
v -0.865972 0.500000 -1.000046
v -0.000053 0.000000 1.000000
v 0.000053 0.000000 -1.000000
v -0.362773 1.628261 0.859409
v -0.362681 1.628261 -0.859447
v 0.362681 0.371739 0.859447
v 0.362773 0.371739 -0.859409
v -0.432959 1.750000 -1.000023
v -0.433066 1.750000 0.999977
v 0.433066 0.250000 -0.999977
v 0.432959 0.250000 1.000023
vt 0.916667 0.500000
vt 0.916667 1.000000
vt 0.833333 1.000000
vt 0.833333 0.500000
vt 0.666667 1.000000
vt 0.666667 0.500000
vt 0.500000 1.000000
vt 0.500000 0.500000
vt 0.416667 1.000000
vt 0.416667 0.500000
vt 0.876087 0.535143
vt 0.876087 0.964857
vt 0.457246 0.964857
vt 0.457246 0.535143
vn -0.5000 0.8660 -0.0000
vn -1.0000 0.0000 -0.0001
vn -0.5000 -0.8660 -0.0000
vn 0.5000 -0.8660 0.0000
vn 0.0001 -0.0000 -1.0000
vn -0.0001 0.0000 1.0000
vn 0.8660 0.5000 0.0000
usemtl trunk_brown.006
s off
f 12/1/1 11/2/1 2/3/1 1/4/1
f 1/4/2 2/3/2 4/5/2 3/6/2
f 3/6/3 4/5/3 6/7/3 5/8/3
f 5/8/4 6/7/4 13/9/4 14/10/4
f 2/3/5 11/2/5 13/9/5 6/7/5 4/5/5
f 12/1/6 1/4/6 3/6/6 5/8/6 14/10/6
f 7/11/7 8/12/7 11/2/7 12/1/7
f 10/13/7 9/14/7 14/10/7 13/9/7
f 8/12/7 10/13/7 13/9/7 11/2/7
f 9/14/7 7/11/7 12/1/7 14/10/7
usemtl trunk_interior.002
f 7/11/7 9/14/7 10/13/7 8/12/7
